<svg id="visual" viewBox="0 0 900 450" width="900" height="450" xmlns="http://www.w3.org/2000/svg" xmlns:xlink="http://www.w3.org/1999/xlink" version="1.1"><g stroke-width="1" stroke-linejoin="bevel"><path d="M402.1 227L388.1 174L359.3 238Z" fill="#1b1b1e" stroke="#1b1b1e"></path><path d="M359.3 238L432.1 280L402.1 227Z" fill="#242427" stroke="#242427"></path><path d="M402.1 227L501.9 217L388.1 174Z" fill="#1b1b1e" stroke="#1b1b1e"></path><path d="M388.1 174L309.3 134L359.3 238Z" fill="#222225" stroke="#222225"></path><path d="M388.1 174L339.3 107L309.3 134Z" fill="#1b1b1e" stroke="#1b1b1e"></path><path d="M309.3 134L263.5 181L359.3 238Z" fill="#1c1c1f" stroke="#1c1c1f"></path><path d="M253.5 326L336.3 319L359.3 238Z" fill="#1f1f22" stroke="#1f1f22"></path><path d="M359.3 238L336.3 319L432.1 280Z" fill="#222225" stroke="#222225"></path><path d="M432.1 280L501.9 217L402.1 227Z" fill="#27272a" stroke="#27272a"></path><path d="M388.1 174L383.1 64L339.3 107Z" fill="#1e1e21" stroke="#1e1e21"></path><path d="M464.9 62L383.1 64L388.1 174Z" fill="#1b1b1e" stroke="#1b1b1e"></path><path d="M247.5 42L263.5 181L309.3 134Z" fill="#1c1c1f" stroke="#1c1c1f"></path><path d="M336.3 319L412.1 359L432.1 280Z" fill="#1f1f22" stroke="#1f1f22"></path><path d="M432.1 280L494.9 310L501.9 217Z" fill="#1f1f22" stroke="#1f1f22"></path><path d="M471.9 349L494.9 310L432.1 280Z" fill="#19191c" stroke="#19191c"></path><path d="M540.7 204L512.9 124L501.9 217Z" fill="#18181b" stroke="#18181b"></path><path d="M501.9 217L512.9 124L388.1 174Z" fill="#252528" stroke="#252528"></path><path d="M154.6 174L212.5 202L263.5 181Z" fill="#1b1b1e" stroke="#1b1b1e"></path><path d="M263.5 181L253.5 326L359.3 238Z" fill="#1e1e21" stroke="#1e1e21"></path><path d="M247.5 42L309.3 134L339.3 107Z" fill="#19191c" stroke="#19191c"></path><path d="M581.7 276L540.7 204L501.9 217Z" fill="#1f1f22" stroke="#1f1f22"></path><path d="M212.5 202L253.5 326L263.5 181Z" fill="#18181b" stroke="#18181b"></path><path d="M336.3 319L318.3 372L412.1 359Z" fill="#252528" stroke="#252528"></path><path d="M512.9 124L464.9 62L388.1 174Z" fill="#27272a" stroke="#27272a"></path><path d="M412.1 359L471.9 349L432.1 280Z" fill="#27272a" stroke="#27272a"></path><path d="M253.5 326L318.3 372L336.3 319Z" fill="#242427" stroke="#242427"></path><path d="M302.3 0L339.3 107L383.1 64Z" fill="#18181b" stroke="#18181b"></path><path d="M302.3 0L247.5 42L339.3 107Z" fill="#27272a" stroke="#27272a"></path><path d="M540.7 204L573.7 150L512.9 124Z" fill="#222225" stroke="#222225"></path><path d="M512.9 124L561.7 89L464.9 62Z" fill="#18181b" stroke="#18181b"></path><path d="M659.5 195L573.7 150L540.7 204Z" fill="#1e1e21" stroke="#1e1e21"></path><path d="M465.9 0L441.1 0L464.9 62Z" fill="#1b1b1e" stroke="#1b1b1e"></path><path d="M464.9 62L441.1 0L383.1 64Z" fill="#1e1e21" stroke="#1e1e21"></path><path d="M441.1 0L302.3 0L383.1 64Z" fill="#1c1c1f" stroke="#1c1c1f"></path><path d="M553.7 370L581.7 276L494.9 310Z" fill="#27272a" stroke="#27272a"></path><path d="M494.9 310L581.7 276L501.9 217Z" fill="#18181b" stroke="#18181b"></path><path d="M154.6 174L158.6 257L212.5 202Z" fill="#19191c" stroke="#19191c"></path><path d="M212.5 202L158.6 257L253.5 326Z" fill="#252528" stroke="#252528"></path><path d="M573.7 150L561.7 89L512.9 124Z" fill="#19191c" stroke="#19191c"></path><path d="M247.5 42L154.6 174L263.5 181Z" fill="#1b1b1e" stroke="#1b1b1e"></path><path d="M558.7 0L465.9 0L464.9 62Z" fill="#252528" stroke="#252528"></path><path d="M158.6 257L167.6 310L253.5 326Z" fill="#212124" stroke="#212124"></path><path d="M253.5 326L221.5 395L318.3 372Z" fill="#1f1f22" stroke="#1f1f22"></path><path d="M183.6 392L221.5 395L253.5 326Z" fill="#1f1f22" stroke="#1f1f22"></path><path d="M404.1 450L471.9 349L412.1 359Z" fill="#1c1c1f" stroke="#1c1c1f"></path><path d="M510.9 450L553.7 370L471.9 349Z" fill="#222225" stroke="#222225"></path><path d="M404.1 450L412.1 359L318.3 372Z" fill="#212124" stroke="#212124"></path><path d="M471.9 349L553.7 370L494.9 310Z" fill="#1c1c1f" stroke="#1c1c1f"></path><path d="M319.3 450L404.1 450L318.3 372Z" fill="#1c1c1f" stroke="#1c1c1f"></path><path d="M234.5 450L319.3 450L318.3 372Z" fill="#27272a" stroke="#27272a"></path><path d="M302.3 0L222.5 0L247.5 42Z" fill="#252528" stroke="#252528"></path><path d="M247.5 42L132.6 96L154.6 174Z" fill="#19191c" stroke="#19191c"></path><path d="M194.6 0L132.6 96L247.5 42Z" fill="#212124" stroke="#212124"></path><path d="M154.6 174L76.8 253L158.6 257Z" fill="#222225" stroke="#222225"></path><path d="M167.6 310L183.6 392L253.5 326Z" fill="#1e1e21" stroke="#1e1e21"></path><path d="M221.5 395L234.5 450L318.3 372Z" fill="#1c1c1f" stroke="#1c1c1f"></path><path d="M222.5 0L194.6 0L247.5 42Z" fill="#1b1b1e" stroke="#1b1b1e"></path><path d="M561.7 89L558.7 0L464.9 62Z" fill="#18181b" stroke="#18181b"></path><path d="M650.5 0L558.7 0L561.7 89Z" fill="#1c1c1f" stroke="#1c1c1f"></path><path d="M404.1 450L510.9 450L471.9 349Z" fill="#212124" stroke="#212124"></path><path d="M172.6 450L234.5 450L221.5 395Z" fill="#18181b" stroke="#18181b"></path><path d="M653.5 132L638.5 104L573.7 150Z" fill="#1f1f22" stroke="#1f1f22"></path><path d="M573.7 150L638.5 104L561.7 89Z" fill="#1c1c1f" stroke="#1c1c1f"></path><path d="M659.5 195L540.7 204L581.7 276Z" fill="#18181b" stroke="#18181b"></path><path d="M660.5 314L659.5 195L581.7 276Z" fill="#18181b" stroke="#18181b"></path><path d="M660.5 314L581.7 276L553.7 370Z" fill="#252528" stroke="#252528"></path><path d="M659.5 195L653.5 132L573.7 150Z" fill="#242427" stroke="#242427"></path><path d="M194.6 0L105.8 77L132.6 96Z" fill="#252528" stroke="#252528"></path><path d="M132.6 96L50.8 123L154.6 174Z" fill="#1e1e21" stroke="#1e1e21"></path><path d="M158.6 257L76.8 253L167.6 310Z" fill="#242427" stroke="#242427"></path><path d="M167.6 310L74.8 368L183.6 392Z" fill="#27272a" stroke="#27272a"></path><path d="M50.8 123L76.8 253L154.6 174Z" fill="#212124" stroke="#212124"></path><path d="M655.5 390L660.5 314L553.7 370Z" fill="#18181b" stroke="#18181b"></path><path d="M77.8 450L172.6 450L183.6 392Z" fill="#1b1b1e" stroke="#1b1b1e"></path><path d="M183.6 392L172.6 450L221.5 395Z" fill="#1e1e21" stroke="#1e1e21"></path><path d="M510.9 450L595.7 450L553.7 370Z" fill="#252528" stroke="#252528"></path><path d="M0 249L49.8 281L76.8 253Z" fill="#222225" stroke="#222225"></path><path d="M76.8 253L49.8 281L167.6 310Z" fill="#27272a" stroke="#27272a"></path><path d="M70.8 0L50.8 123L105.8 77Z" fill="#212124" stroke="#212124"></path><path d="M105.8 77L50.8 123L132.6 96Z" fill="#1c1c1f" stroke="#1c1c1f"></path><path d="M595.7 450L655.5 390L553.7 370Z" fill="#242427" stroke="#242427"></path><path d="M753.4 385L705.4 268L660.5 314Z" fill="#1f1f22" stroke="#1f1f22"></path><path d="M660.5 314L705.4 268L659.5 195Z" fill="#19191c" stroke="#19191c"></path><path d="M659.5 195L754.4 141L653.5 132Z" fill="#18181b" stroke="#18181b"></path><path d="M49.8 281L74.8 368L167.6 310Z" fill="#252528" stroke="#252528"></path><path d="M638.5 104L650.5 0L561.7 89Z" fill="#18181b" stroke="#18181b"></path><path d="M734.4 73L650.5 0L638.5 104Z" fill="#1f1f22" stroke="#1f1f22"></path><path d="M734.4 73L638.5 104L653.5 132Z" fill="#1f1f22" stroke="#1f1f22"></path><path d="M194.6 0L70.8 0L105.8 77Z" fill="#1e1e21" stroke="#1e1e21"></path><path d="M814.2 255L744.4 197L705.4 268Z" fill="#19191c" stroke="#19191c"></path><path d="M705.4 268L744.4 197L659.5 195Z" fill="#1e1e21" stroke="#1e1e21"></path><path d="M50.8 123L0 249L76.8 253Z" fill="#222225" stroke="#222225"></path><path d="M49.8 281L0 331L74.8 368Z" fill="#212124" stroke="#212124"></path><path d="M0 129L0 249L50.8 123Z" fill="#242427" stroke="#242427"></path><path d="M0 107L0 129L50.8 123Z" fill="#222225" stroke="#222225"></path><path d="M74.8 368L77.8 450L183.6 392Z" fill="#1c1c1f" stroke="#1c1c1f"></path><path d="M0 450L77.8 450L74.8 368Z" fill="#19191c" stroke="#19191c"></path><path d="M754.4 141L734.4 73L653.5 132Z" fill="#1c1c1f" stroke="#1c1c1f"></path><path d="M744.4 197L754.4 141L659.5 195Z" fill="#1f1f22" stroke="#1f1f22"></path><path d="M70.8 0L0 107L50.8 123Z" fill="#222225" stroke="#222225"></path><path d="M0 249L0 331L49.8 281Z" fill="#222225" stroke="#222225"></path><path d="M595.7 450L685.5 450L655.5 390Z" fill="#27272a" stroke="#27272a"></path><path d="M655.5 390L753.4 385L660.5 314Z" fill="#212124" stroke="#212124"></path><path d="M0 331L0 343L74.8 368Z" fill="#222225" stroke="#222225"></path><path d="M807.2 0L730.4 0L734.4 73Z" fill="#222225" stroke="#222225"></path><path d="M734.4 73L730.4 0L650.5 0Z" fill="#222225" stroke="#222225"></path><path d="M685.5 450L753.4 385L655.5 390Z" fill="#1b1b1e" stroke="#1b1b1e"></path><path d="M744.4 197L834.2 139L754.4 141Z" fill="#27272a" stroke="#27272a"></path><path d="M70.8 0L0 0L0 107Z" fill="#252528" stroke="#252528"></path><path d="M822.2 278L814.2 255L705.4 268Z" fill="#212124" stroke="#212124"></path><path d="M754.4 141L836.2 99L734.4 73Z" fill="#1e1e21" stroke="#1e1e21"></path><path d="M0 343L0 450L74.8 368Z" fill="#252528" stroke="#252528"></path><path d="M685.5 450L748.4 450L753.4 385Z" fill="#18181b" stroke="#18181b"></path><path d="M753.4 385L822.2 278L705.4 268Z" fill="#1f1f22" stroke="#1f1f22"></path><path d="M834.2 372L822.2 278L753.4 385Z" fill="#1c1c1f" stroke="#1c1c1f"></path><path d="M814.2 255L834.2 139L744.4 197Z" fill="#18181b" stroke="#18181b"></path><path d="M900 225L834.2 139L814.2 255Z" fill="#19191c" stroke="#19191c"></path><path d="M834.2 139L836.2 99L754.4 141Z" fill="#27272a" stroke="#27272a"></path><path d="M836.2 99L807.2 0L734.4 73Z" fill="#242427" stroke="#242427"></path><path d="M817.2 450L834.2 372L753.4 385Z" fill="#242427" stroke="#242427"></path><path d="M822.2 278L900 225L814.2 255Z" fill="#18181b" stroke="#18181b"></path><path d="M834.2 139L900 131L836.2 99Z" fill="#1b1b1e" stroke="#1b1b1e"></path><path d="M748.4 450L817.2 450L753.4 385Z" fill="#18181b" stroke="#18181b"></path><path d="M900 298L822.2 278L834.2 372Z" fill="#18181b" stroke="#18181b"></path><path d="M900 298L900 225L822.2 278Z" fill="#242427" stroke="#242427"></path><path d="M836.2 99L900 0L807.2 0Z" fill="#18181b" stroke="#18181b"></path><path d="M900 225L900 131L834.2 139Z" fill="#1f1f22" stroke="#1f1f22"></path><path d="M900 368L900 298L834.2 372Z" fill="#222225" stroke="#222225"></path><path d="M900 131L900 81L836.2 99Z" fill="#1f1f22" stroke="#1f1f22"></path><path d="M900 450L900 368L834.2 372Z" fill="#1b1b1e" stroke="#1b1b1e"></path><path d="M900 81L900 0L836.2 99Z" fill="#27272a" stroke="#27272a"></path><path d="M817.2 450L900 450L834.2 372Z" fill="#1b1b1e" stroke="#1b1b1e"></path></g></svg>