<svg id="visual" viewBox="0 0 900 150" width="900" height="150" xmlns="http://www.w3.org/2000/svg" xmlns:xlink="http://www.w3.org/1999/xlink" version="1.1"><path d="M0 51L18.8 54.3C37.7 57.7 75.3 64.3 112.8 68.7C150.3 73 187.7 75 225.2 77.2C262.7 79.3 300.3 81.7 337.8 83.2C375.3 84.7 412.7 85.3 450.2 85.2C487.7 85 525.3 84 562.8 78.5C600.3 73 637.7 63 675.2 62.5C712.7 62 750.3 71 787.8 75.2C825.3 79.3 862.7 78.7 881.3 78.3L900 78L900 151L881.3 151C862.7 151 825.3 151 787.8 151C750.3 151 712.7 151 675.2 151C637.7 151 600.3 151 562.8 151C525.3 151 487.7 151 450.2 151C412.7 151 375.3 151 337.8 151C300.3 151 262.7 151 225.2 151C187.7 151 150.3 151 112.8 151C75.3 151 37.7 151 18.8 151L0 151Z" fill="#06b6d4"></path><path d="M0 96L18.8 93C37.7 90 75.3 84 112.8 80.8C150.3 77.7 187.7 77.3 225.2 78.8C262.7 80.3 300.3 83.7 337.8 85.2C375.3 86.7 412.7 86.3 450.2 83C487.7 79.7 525.3 73.3 562.8 71.5C600.3 69.7 637.7 72.3 675.2 77.8C712.7 83.3 750.3 91.7 787.8 94.3C825.3 97 862.7 94 881.3 92.5L900 91L900 151L881.3 151C862.7 151 825.3 151 787.8 151C750.3 151 712.7 151 675.2 151C637.7 151 600.3 151 562.8 151C525.3 151 487.7 151 450.2 151C412.7 151 375.3 151 337.8 151C300.3 151 262.7 151 225.2 151C187.7 151 150.3 151 112.8 151C75.3 151 37.7 151 18.8 151L0 151Z" fill="#3495b7"></path><path d="M0 99L18.8 96.2C37.7 93.3 75.3 87.7 112.8 84.7C150.3 81.7 187.7 81.3 225.2 81C262.7 80.7 300.3 80.3 337.8 83.5C375.3 86.7 412.7 93.3 450.2 94.7C487.7 96 525.3 92 562.8 92.5C600.3 93 637.7 98 675.2 98.7C712.7 99.3 750.3 95.7 787.8 95.7C825.3 95.7 862.7 99.3 881.3 101.2L900 103L900 151L881.3 151C862.7 151 825.3 151 787.8 151C750.3 151 712.7 151 675.2 151C637.7 151 600.3 151 562.8 151C525.3 151 487.7 151 450.2 151C412.7 151 375.3 151 337.8 151C300.3 151 262.7 151 225.2 151C187.7 151 150.3 151 112.8 151C75.3 151 37.7 151 18.8 151L0 151Z" fill="#417695"></path><path d="M0 90L18.8 92.7C37.7 95.3 75.3 100.7 112.8 100.7C150.3 100.7 187.7 95.3 225.2 97.3C262.7 99.3 300.3 108.7 337.8 108.8C375.3 109 412.7 100 450.2 95.7C487.7 91.3 525.3 91.7 562.8 92.2C600.3 92.7 637.7 93.3 675.2 97.2C712.7 101 750.3 108 787.8 110.3C825.3 112.7 862.7 110.3 881.3 109.2L900 108L900 151L881.3 151C862.7 151 825.3 151 787.8 151C750.3 151 712.7 151 675.2 151C637.7 151 600.3 151 562.8 151C525.3 151 487.7 151 450.2 151C412.7 151 375.3 151 337.8 151C300.3 151 262.7 151 225.2 151C187.7 151 150.3 151 112.8 151C75.3 151 37.7 151 18.8 151L0 151Z" fill="#425971"></path><path d="M0 119L18.8 119C37.7 119 75.3 119 112.8 117.2C150.3 115.3 187.7 111.7 225.2 110.3C262.7 109 300.3 110 337.8 111.3C375.3 112.7 412.7 114.3 450.2 114.3C487.7 114.3 525.3 112.7 562.8 114C600.3 115.3 637.7 119.7 675.2 118.5C712.7 117.3 750.3 110.7 787.8 111.2C825.3 111.7 862.7 119.3 881.3 123.2L900 127L900 151L881.3 151C862.7 151 825.3 151 787.8 151C750.3 151 712.7 151 675.2 151C637.7 151 600.3 151 562.8 151C525.3 151 487.7 151 450.2 151C412.7 151 375.3 151 337.8 151C300.3 151 262.7 151 225.2 151C187.7 151 150.3 151 112.8 151C75.3 151 37.7 151 18.8 151L0 151Z" fill="#383e4c"></path><path d="M0 133L18.8 133C37.7 133 75.3 133 112.8 132.3C150.3 131.7 187.7 130.3 225.2 129.3C262.7 128.3 300.3 127.7 337.8 126.3C375.3 125 412.7 123 450.2 121.8C487.7 120.7 525.3 120.3 562.8 120.8C600.3 121.3 637.7 122.7 675.2 124.7C712.7 126.7 750.3 129.3 787.8 130.2C825.3 131 862.7 130 881.3 129.5L900 129L900 151L881.3 151C862.7 151 825.3 151 787.8 151C750.3 151 712.7 151 675.2 151C637.7 151 600.3 151 562.8 151C525.3 151 487.7 151 450.2 151C412.7 151 375.3 151 337.8 151C300.3 151 262.7 151 225.2 151C187.7 151 150.3 151 112.8 151C75.3 151 37.7 151 18.8 151L0 151Z" fill="#27272a"></path></svg>