<svg id="visual" viewBox="0 0 900 100" width="900" height="100" xmlns="http://www.w3.org/2000/svg" xmlns:xlink="http://www.w3.org/1999/xlink" version="1.1"><path d="M0 29L30 36.5C60 44 120 59 180 61.8C240 64.7 300 55.3 360 53.7C420 52 480 58 540 64.7C600 71.3 660 78.7 720 79.3C780 80 840 74 870 71L900 68L900 101L870 101C840 101 780 101 720 101C660 101 600 101 540 101C480 101 420 101 360 101C300 101 240 101 180 101C120 101 60 101 30 101L0 101Z" fill="#27272A" stroke-linecap="round" stroke-linejoin="miter"></path></svg>